HIERARCHY
ROOT ui
{
	 OFFSET 0 0 0
	 CHANNELS 3 XPosition YPosition Z Position
	 EndSite
	 {
	 OFFSET 0 -1 0
	 }
}
ROOT li
{
	 OFFSET 0 0 0
	 CHANNELS 3 XPosition YPosition Z Position
	 EndSite
	 {
	 OFFSET 0 -1 0
	 }
}
ROOT ul
{
	 OFFSET 0 0 0
	 CHANNELS 3 XPosition YPosition Z Position
	 EndSite
	 {
	 OFFSET 0 -1 0
	 }
}
ROOT ll
{
	 OFFSET 0 0 0
	 CHANNELS 3 XPosition YPosition Z Position
	 EndSite
	 {
	 OFFSET 0 -1 0
	 }
}
ROOT tt
{
	 OFFSET 0 0 0
	 CHANNELS 3 XPosition YPosition Z Position
	 EndSite
	 {
	 OFFSET 0 -1 0
	 }
}
ROOT tb
{
	 OFFSET 0 0 0
	 CHANNELS 3 XPosition YPosition Z Position
	 EndSite
	 {
	 OFFSET 0 -1 0
	 }
}
ROOT td
{
	 OFFSET 0 0 0
	 CHANNELS 3 XPosition YPosition Z Position
	 EndSite
	 {
	 OFFSET 0 -1 0
	 }
}
ROOT v
{
	 OFFSET 0 0 0
	 CHANNELS 3 XPosition YPosition Z Position
	 EndSite
	 {
	 OFFSET 0 -1 0
	 }
}
ROOT bn
{
	 OFFSET 0 0 0
	 CHANNELS 3 XPosition YPosition Z Position
	 EndSite
	 {
	 OFFSET 0 -1 0
	 }
}
MOTION
Frames: 27
Frame Time: 0.002
5.207419991493225E-4	0.002539691925048828	0		0.6036387939453125	-2.555473876953125	0		-0.9972396240234375	0.2807018737792969	0		-0.484983642578125	-2.7495849609375	0		3.0153251953125	-0.15610018920898439	0		4.2908935546875	-0.3365291442871094	0		5.4416884765625	-0.243929443359375	0		5.9831923828125	0.4501242370605469	0		-0.2783399353027344	5.89501513671875	0		
-0.0034757869243621825	-0.0016173239946365356	0		0.560798828125	-2.556283447265625	0		-0.991250732421875	0.2764126281738281	0		-0.5058144226074218	-2.75062890625	0		3.02649853515625	-0.14022540283203125	0		4.292068359375	-0.32150787353515625	0		5.45377685546875	-0.23893826293945314	0		5.98321875	0.450330322265625	0		-0.2936863403320312	5.88493310546875	0		
5.8999502658844E-4	0.0021708860397338867	0		0.6169259643554688	-2.559888427734375	0		-0.987197998046875	0.2801545715332031	0		-0.5016199645996093	-2.7468642578125	0		3.042707763671875	-0.11939279174804687	0		4.30514892578125	-0.3175912170410156	0		5.47093408203125	-0.22499986267089844	0		5.98616455078125	0.47121246337890627	0		-0.29392825317382815	5.884740234375	0		
6.199650168418884E-4	0.002004502058029175	0		0.5712173461914063	-2.54066015625	0		-0.9871796264648437	0.27994680786132814	0		-0.47643548583984374	-2.742252685546875	0		3.07581396484375	-0.11069705963134766	0		4.32324755859375	-0.3107220764160156	0		5.47678076171875	-0.2489844970703125	0		5.97834130859375	0.4715150451660156	0		-0.29414471435546874	5.8845615234375	0		
6.45497977733612E-4	0.0018529629707336427	0		0.594279296875	-2.547974365234375	0		-0.987164306640625	0.2797591247558594	0		-0.5112843627929687	-2.739141845703125	0		3.0709716796875	-0.094696533203125	0		4.34326025390625	-0.3138751220703125	0		5.4858310546875	-0.24700753784179688	0		5.978359375	0.4716346740722656	0		-0.2943345947265625	5.8843994140625	0		
-0.0033661370277404787	-0.002250082969665527	0		0.60431494140625	-2.55617041015625	0		-0.9871528930664063	0.27959326171875	0		-0.4782196044921875	-2.744555419921875	0		3.0840263671875	-0.09083941650390626	0		4.323314453125	-0.3107154846191406	0		5.48584326171875	-0.24897135925292968	0		5.97837451171875	0.4717264099121094	0		-0.29549005126953126	5.88526318359375	0		
-0.0033522310256958007	-0.0023671889305114744	0		0.6133231201171875	-2.565343017578125	0		-0.9811860961914063	0.27440325927734377	0		-0.5470691528320313	-2.736137451171875	0		3.11604931640625	-0.09013077545166015	0		4.3522958984375	-0.3159508056640625	0		5.49979150390625	-0.2580574645996094	0		5.98330908203125	0.45093798828125	0		-0.27856533813476564	5.8930029296875	0		
0.008678234100341797	4.403730034828186E-4	0		0.56750341796875	-2.550063720703125	0		-0.967082275390625	0.2871744689941406	0		-0.471	-2.73584765625	0		3.13223193359375	-0.06829096221923828	0		4.36152294921875	-0.28903018188476565	0		5.503859375	-0.25107286071777346	0		5.98693798828125	0.4682166137695313	0		-0.2776881103515625	5.89189208984375	0		
6.860679984092712E-4	0.0014281680583953858	0		0.6065105590820312	-2.554438232421875	0		-0.9720553588867188	0.291123046875	0		-0.54293115234375	-2.73236181640625	0		3.116399169921875	-0.04719122314453125	0		4.3534326171875	-0.3009732055664063	0		5.5088232421875	-0.25610076904296875	0		5.9783896484375	0.47187496948242186	0		-0.28074981689453127	5.8958359375	0		
6.772400140762329E-4	0.0013764430284500123	0		0.579554931640625	-2.551270263671875	0		-0.9711384887695312	0.28205279541015627	0		-0.4869189453125	-2.733861572265625	0		3.132382568359375	-0.04833422088623047	0		4.35342724609375	-0.30097610473632813	0		5.5186748046875	-0.2741690673828125	0		5.98330859375	0.4510475158691406	0		-0.24966001892089842	5.91653564453125	0		
-0.0033731861114501952	-0.0026179780960083007	0		0.5755140991210937	-2.5562607421875	0		-0.971159423828125	0.28202005004882813	0		-0.5469409790039063	-2.73641796875	0		3.1404501953125	-0.037402217864990234	0		4.37740966796875	-0.3011615295410156	0		5.522728515625	-0.2651890869140625	0		5.983294921875	0.4510740051269531	0		-0.26580584716796873	5.90563427734375	0		
6.272770166397094E-4	0.0013517179489135741	0		0.5594588623046876	-2.560131591796875	0		-0.96715185546875	0.2869871826171875	0		-0.5079580383300781	-2.735725341796875	0		3.14041943359375	-0.03739260864257812	0		4.38343408203125	-0.2941961669921875	0		5.53168212890625	-0.26724407958984375	0		5.97834765625	0.47195858764648435	0		-0.28093063354492187	5.89575341796875	0		
5.828840136528015E-4	0.0013823150396347047	0		0.5524973754882813	-2.549047119140625	0		-0.9621643676757813	0.29097976684570315	0		-0.5389506225585937	-2.728449951171875	0		3.16250048828125	-0.021540861129760742	0		4.388333984375	-0.301211669921875	0		5.54151123046875	-0.283300537109375	0		5.98745263671875	0.43029913330078123	0		-0.28096575927734374	5.89578466796875	0		
5.236210227012634E-4	0.0014438749551773072	0		0.6043665161132813	-2.556398681640625	0		-0.9672533569335937	0.28708642578125	0		-0.5040503845214844	-2.7316611328125	0		3.156496337890625	-0.014450451850891114	0		4.3923125	-0.2962071533203125	0		5.536521484375	-0.2742318115234375	0		5.9874111328125	0.43034527587890625	0		-0.280990966796875	5.89584765625	0		
4.479840099811554E-4	0.0015378320217132569	0		0.5772821044921875	-2.55409765625	0		-0.967326171875	0.2871900329589844	0		-0.53912841796875	-2.728285888671875	0		3.173420166015625	-0.01452215576171875	0		4.41118603515625	-0.3023067626953125	0		5.55037158203125	-0.28330322265625	0		5.98314453125	0.4512452087402344	0		-0.26592947387695315	5.90582568359375	0		
-0.012605487823486328	0.0067678699493408205	0		0.5901680297851563	-2.552081298828125	0		-0.9714550170898437	0.28236282348632813	0		-0.5162294311523438	-2.7243330078125	0		3.177365966796875	-0.00947134494781494	0		4.3880966796875	-0.30105963134765623	0		5.55027392578125	-0.2832541198730469	0		5.98307763671875	0.451318359375	0		-0.281018310546875	5.89607568359375	0		
2.4258099496364592E-4	0.001826172947883606	0		0.5579312133789063	-2.561677001953125	0		-0.9675223388671875	0.2875096435546875	0		-0.5394220581054687	-2.72797998046875	0		3.18624560546875	-0.010439599990844727	0		4.412859375	-0.3161764221191406	0		5.55508544921875	-0.292233642578125	0		5.97936376953125	0.43071585083007813	0		-0.2800387268066406	5.89423388671875	0		
0.005072497844696045	-0.0030193150043487547	0		0.614741943359375	-2.56194873046875	0		-0.9626144409179688	0.29168551635742185	0		-0.5315419311523437	-2.718837890625	0		3.20813818359375	-0.007491735935211181	0		4.41488134765625	-0.29609744262695314	0		5.5639326171875	-0.29423519897460937	0		5.98722412109375	0.46353619384765626	0		-0.27904519653320314	5.8934267578125	0		
-3.5169001668691635E-5	0.002246514081954956	0		0.5786155395507813	-2.55045166015625	0		-0.9677861328125	0.2879772033691406	0		-0.542697265625	-2.710510009765625	0		3.2409814453125	-0.008613557815551757	0		4.40358251953125	-0.3138995361328125	0		5.56379296875	-0.29215603637695314	0		5.97203271484375	0.4310723571777344	0		-0.2810130920410156	5.89667626953125	0		
-0.004231542110443115	-0.001464053988456726	0		0.6082283325195312	-2.56845166015625	0		-0.9829735107421875	0.2843841552734375	0		-0.5340245971679688	-2.72030810546875	0		3.211865478515625	-0.0022227680683135987	0		4.403408203125	-0.31377618408203123	0		5.5685634765625	-0.2991077880859375	0		5.9790458984375	0.4310622253417969	0		-0.29509396362304685	5.88505419921875	0		
-3.804740011692047E-4	0.0027910239696502686	0		0.5529854736328125	-2.564742919921875	0		-0.9881766967773438	0.280745361328125	0		-0.5452338256835938	-2.711914306640625	0		3.244683349609375	-0.002310817003250122	0		4.41116845703125	-0.31970370483398436	0		5.5732998046875	-0.3080509338378906	0		5.9717841796875	0.4313415832519531	0		-0.2960655517578125	5.88635986328125	0		
-0.004608967781066895	-8.604840040206909E-4	0		0.60766650390625	-2.56789208984375	0		-0.988362548828125	0.28109857177734376	0		-0.5685639038085938	-2.7153916015625	0		3.203585205078125	0.01021401309967041	0		4.4170244140625	-0.31160247802734375	0		5.573091796875	-0.3079447021484375	0		5.98018505859375	0.4261387939453125	0		-0.2950484924316406	5.8856787109375	0		
-7.870150208473206E-4	0.0034505019187927245	0		0.55641064453125	-2.560159423828125	0		-0.9885615234375	0.28148202514648435	0		-0.5258369750976563	-2.709374755859375	0		3.23340673828125	0.01418386173248291	0		4.422736328125	-0.3194864501953125	0		5.58492529296875	-0.30092474365234373	0		5.9878671875	0.42269583129882815	0		-0.2940367126464844	5.88402587890625	0		
-0.0010090910196304322	0.0038196089267730714	0		0.6070203857421875	-2.567230224609375	0		-0.988771728515625	0.28189324951171874	0		-0.5700670776367187	-2.69562451171875	0		3.217185791015625	0.014545727729797363	0		4.4245166015625	-0.31732232666015625	0		5.58250244140625	-0.32377664184570315	0		5.9713330078125	0.4318633728027344	0		-0.24874017333984375	5.9170390625	0		
-0.0012404450178146362	0.004212025165557861	0		0.5687431030273438	-2.558552734375	0		-0.9550248413085938	0.27805007934570314	0		-0.5324263916015625	-2.696518798828125	0		3.2349296875	0.01164921474456787	0		4.429205078125	-0.3251649475097656	0		5.5822568359375	-0.32362936401367187	0		5.9711669921875	0.43208511352539064	0		-0.24970368957519531	5.91845068359375	0		
-5.442749857902527E-4	-0.0033833630084991453	0		0.6022831420898438	-2.57144580078125	0		-0.9992159423828125	0.28286798095703125	0		-0.56674169921875	-2.69080224609375	0		3.231733642578125	0.016942724227905274	0		4.4209697265625	-0.32288311767578126	0		5.58695458984375	-0.3295057067871094	0		5.98012060546875	0.38890249633789065	0		-0.2637774658203125	5.906990234375	0		
-7.857300043106079E-4	-0.002954200983047485	0		0.5509962158203126	-2.562620361328125	0		-0.9934781494140625	0.27929168701171875	0		-0.5521356811523438	-2.694472412109375	0		3.245525634765625	0.021112640380859374	0		4.41465625	-0.3295994567871094	0		5.58668212890625	-0.33132357788085937	0		5.9757265625	0.4065690612792969	0		-0.27785659790039063	5.8955478515625	0		
